<mxfile host="app.diagrams.net" modified="2023-11-23T12:08:29.889Z" agent="Mozilla/5.0 (Macintosh; Intel Mac OS X 10_15_7) AppleWebKit/605.1.15 (KHTML, like Gecko) Version/16.2 Safari/605.1.15" etag="oBAGdTyAI-Cb16y_DKFr" version="22.1.3" type="github" pages="2">
  <diagram name="Normal Diagram" id="iTWbd6mipeBpZk2Jp2Tz">
    <mxGraphModel dx="954" dy="486" grid="1" gridSize="10" guides="1" tooltips="1" connect="1" arrows="1" fold="1" page="1" pageScale="1" pageWidth="827" pageHeight="1169" background="#ffffff" math="0" shadow="0">
      <root>
        <mxCell id="0" />
        <mxCell id="1" parent="0" />
        <mxCell id="iywb-d-cCoqlkZep_opl-2" value="" style="sketch=0;pointerEvents=1;shadow=0;dashed=0;html=1;strokeColor=none;fillColor=#434445;aspect=fixed;labelPosition=center;verticalLabelPosition=bottom;verticalAlign=top;align=center;outlineConnect=0;shape=mxgraph.vvd.wi_fi;rotation=90;" parent="1" vertex="1">
          <mxGeometry x="90" y="100" width="50" height="50" as="geometry" />
        </mxCell>
        <mxCell id="iywb-d-cCoqlkZep_opl-3" value="" style="verticalLabelPosition=bottom;shadow=0;dashed=0;align=center;html=1;verticalAlign=top;shape=mxgraph.electrical.radio.aerial_-_antenna_2;" parent="1" vertex="1">
          <mxGeometry x="140" y="160" width="30" height="40" as="geometry" />
        </mxCell>
        <mxCell id="1zK_jm-uq4jT2fNUcjU_-1" value="Feeder Computer" style="sketch=0;aspect=fixed;pointerEvents=1;shadow=0;dashed=0;html=1;strokeColor=none;labelPosition=left;verticalLabelPosition=middle;verticalAlign=middle;align=right;fillColor=#00188D;shape=mxgraph.azure.computer" parent="1" vertex="1">
          <mxGeometry x="131" y="244" width="50" height="45" as="geometry" />
        </mxCell>
        <mxCell id="1zK_jm-uq4jT2fNUcjU_-2" value="" style="fontColor=#0066CC;verticalAlign=top;verticalLabelPosition=bottom;labelPosition=center;align=center;html=1;outlineConnect=0;fillColor=#CCCCCC;strokeColor=#6881B3;gradientColor=none;gradientDirection=north;strokeWidth=2;shape=mxgraph.networks.usb_stick;rotation=-180;" parent="1" vertex="1">
          <mxGeometry x="146" y="200" width="20" height="44.44" as="geometry" />
        </mxCell>
        <mxCell id="1zK_jm-uq4jT2fNUcjU_-3" value="" style="shape=image;html=1;verticalAlign=top;verticalLabelPosition=bottom;labelBackgroundColor=#ffffff;imageAspect=0;aspect=fixed;image=https://cdn4.iconfinder.com/data/icons/transportation-190/1000/airline_aircraft_airport_air_airliner_airplane_airway-128.png" parent="1" vertex="1">
          <mxGeometry x="10" y="10" width="128" height="128" as="geometry" />
        </mxCell>
        <mxCell id="1zK_jm-uq4jT2fNUcjU_-4" value="Aircraft with ADS-B Transponder" style="text;strokeColor=none;align=left;fillColor=none;html=1;verticalAlign=middle;whiteSpace=wrap;rounded=0;" parent="1" vertex="1">
          <mxGeometry x="125" y="59" width="210" height="30" as="geometry" />
        </mxCell>
        <mxCell id="1zK_jm-uq4jT2fNUcjU_-5" value="ADS-B Antenna" style="text;strokeColor=none;align=right;fillColor=none;html=1;verticalAlign=middle;whiteSpace=wrap;rounded=0;" parent="1" vertex="1">
          <mxGeometry x="35" y="165" width="105" height="30" as="geometry" />
        </mxCell>
        <mxCell id="1zK_jm-uq4jT2fNUcjU_-6" value="SDR" style="text;strokeColor=none;align=right;fillColor=none;html=1;verticalAlign=middle;whiteSpace=wrap;rounded=0;" parent="1" vertex="1">
          <mxGeometry x="100" y="200" width="40" height="30" as="geometry" />
        </mxCell>
        <mxCell id="wi6hc9yVbQGGReYQ5mCS-23" style="edgeStyle=orthogonalEdgeStyle;curved=1;rounded=0;orthogonalLoop=1;jettySize=auto;html=1;entryX=0;entryY=0.5;entryDx=0;entryDy=0;entryPerimeter=0;" parent="1" source="wi6hc9yVbQGGReYQ5mCS-3" target="wi6hc9yVbQGGReYQ5mCS-14" edge="1">
          <mxGeometry relative="1" as="geometry">
            <mxPoint x="400" y="440" as="targetPoint" />
            <Array as="points">
              <mxPoint x="380" y="290" />
              <mxPoint x="380" y="430" />
              <mxPoint x="520" y="430" />
              <mxPoint x="520" y="354" />
            </Array>
          </mxGeometry>
        </mxCell>
        <mxCell id="wi6hc9yVbQGGReYQ5mCS-24" value="MLAT" style="edgeLabel;html=1;align=center;verticalAlign=middle;resizable=0;points=[];" parent="wi6hc9yVbQGGReYQ5mCS-23" vertex="1" connectable="0">
          <mxGeometry x="0.1511" y="-1" relative="1" as="geometry">
            <mxPoint x="-81" y="-61" as="offset" />
          </mxGeometry>
        </mxCell>
        <mxCell id="wi6hc9yVbQGGReYQ5mCS-25" style="edgeStyle=orthogonalEdgeStyle;curved=1;rounded=0;orthogonalLoop=1;jettySize=auto;html=1;startArrow=classic;startFill=1;entryX=0.5;entryY=1;entryDx=0;entryDy=0;entryPerimeter=0;" parent="1" source="wi6hc9yVbQGGReYQ5mCS-3" target="wi6hc9yVbQGGReYQ5mCS-5" edge="1">
          <mxGeometry relative="1" as="geometry">
            <mxPoint x="339" y="200" as="targetPoint" />
          </mxGeometry>
        </mxCell>
        <mxCell id="wi6hc9yVbQGGReYQ5mCS-26" value="API Calls" style="edgeLabel;html=1;align=center;verticalAlign=middle;resizable=0;points=[];" parent="wi6hc9yVbQGGReYQ5mCS-25" vertex="1" connectable="0">
          <mxGeometry x="-0.0462" y="-1" relative="1" as="geometry">
            <mxPoint as="offset" />
          </mxGeometry>
        </mxCell>
        <mxCell id="wi6hc9yVbQGGReYQ5mCS-3" value="bordercontrol" style="sketch=0;aspect=fixed;pointerEvents=1;shadow=0;dashed=0;html=1;strokeColor=none;labelPosition=center;verticalLabelPosition=bottom;verticalAlign=top;align=center;fillColor=#00188D;shape=mxgraph.mscae.enterprise.web_server" parent="1" vertex="1">
          <mxGeometry x="320" y="265" width="38" height="50" as="geometry" />
        </mxCell>
        <mxCell id="wi6hc9yVbQGGReYQ5mCS-5" value="ATC" style="sketch=0;aspect=fixed;pointerEvents=1;shadow=0;dashed=0;html=1;strokeColor=none;labelPosition=left;verticalLabelPosition=middle;verticalAlign=middle;align=right;fillColor=#00188D;shape=mxgraph.mscae.enterprise.database_server" parent="1" vertex="1">
          <mxGeometry x="320" y="120" width="38" height="50" as="geometry" />
        </mxCell>
        <mxCell id="wi6hc9yVbQGGReYQ5mCS-7" value="feed-in&lt;br&gt;containers" style="sketch=0;aspect=fixed;pointerEvents=1;shadow=0;dashed=0;html=1;strokeColor=none;labelPosition=center;verticalLabelPosition=bottom;verticalAlign=top;align=center;fillColor=#00188D;shape=mxgraph.mscae.enterprise.cluster_server" parent="1" vertex="1">
          <mxGeometry x="440" y="329" width="40" height="50" as="geometry" />
        </mxCell>
        <mxCell id="wi6hc9yVbQGGReYQ5mCS-11" value="Interwebs" style="ellipse;shape=cloud;whiteSpace=wrap;html=1;" parent="1" vertex="1">
          <mxGeometry x="190" y="224" width="99" height="41" as="geometry" />
        </mxCell>
        <mxCell id="wi6hc9yVbQGGReYQ5mCS-12" style="edgeStyle=orthogonalEdgeStyle;curved=1;rounded=0;orthogonalLoop=1;jettySize=auto;html=1;entryX=0;entryY=0.5;entryDx=0;entryDy=0;entryPerimeter=0;" parent="1" source="wi6hc9yVbQGGReYQ5mCS-3" target="wi6hc9yVbQGGReYQ5mCS-7" edge="1">
          <mxGeometry relative="1" as="geometry" />
        </mxCell>
        <mxCell id="wi6hc9yVbQGGReYQ5mCS-13" value="BEAST" style="edgeLabel;html=1;align=center;verticalAlign=middle;resizable=0;points=[];" parent="wi6hc9yVbQGGReYQ5mCS-12" vertex="1" connectable="0">
          <mxGeometry x="0.0236" y="3" relative="1" as="geometry">
            <mxPoint as="offset" />
          </mxGeometry>
        </mxCell>
        <mxCell id="wi6hc9yVbQGGReYQ5mCS-14" value="regional&lt;br&gt;multiplexers" style="sketch=0;aspect=fixed;pointerEvents=1;shadow=0;dashed=0;html=1;strokeColor=none;labelPosition=center;verticalLabelPosition=bottom;verticalAlign=top;align=center;fillColor=#00188D;shape=mxgraph.mscae.enterprise.cluster_server" parent="1" vertex="1">
          <mxGeometry x="567" y="329" width="40" height="50" as="geometry" />
        </mxCell>
        <mxCell id="wi6hc9yVbQGGReYQ5mCS-16" style="edgeStyle=orthogonalEdgeStyle;curved=1;rounded=0;orthogonalLoop=1;jettySize=auto;html=1;entryX=0;entryY=0.5;entryDx=0;entryDy=0;entryPerimeter=0;" parent="1" source="wi6hc9yVbQGGReYQ5mCS-7" target="wi6hc9yVbQGGReYQ5mCS-14" edge="1">
          <mxGeometry relative="1" as="geometry" />
        </mxCell>
        <mxCell id="wi6hc9yVbQGGReYQ5mCS-17" value="BEAST" style="edgeLabel;html=1;align=center;verticalAlign=middle;resizable=0;points=[];" parent="wi6hc9yVbQGGReYQ5mCS-16" vertex="1" connectable="0">
          <mxGeometry x="0.025" y="-2" relative="1" as="geometry">
            <mxPoint x="-15" y="-2" as="offset" />
          </mxGeometry>
        </mxCell>
        <mxCell id="wi6hc9yVbQGGReYQ5mCS-27" value="NATS" style="sketch=0;aspect=fixed;pointerEvents=1;shadow=0;dashed=0;html=1;strokeColor=none;labelPosition=left;verticalLabelPosition=middle;verticalAlign=middle;align=right;fillColor=#00188D;shape=mxgraph.mscae.enterprise.server_generic" parent="1" vertex="1">
          <mxGeometry x="448" y="120" width="24" height="50" as="geometry" />
        </mxCell>
        <mxCell id="wi6hc9yVbQGGReYQ5mCS-28" value="Msgs" style="edgeStyle=orthogonalEdgeStyle;curved=1;rounded=0;orthogonalLoop=1;jettySize=auto;html=1;entryX=0;entryY=1;entryDx=0;entryDy=0;entryPerimeter=0;" parent="1" source="wi6hc9yVbQGGReYQ5mCS-7" target="wi6hc9yVbQGGReYQ5mCS-27" edge="1">
          <mxGeometry relative="1" as="geometry">
            <mxPoint x="460" y="190" as="targetPoint" />
            <Array as="points">
              <mxPoint x="460" y="250" />
              <mxPoint x="448" y="250" />
            </Array>
          </mxGeometry>
        </mxCell>
        <mxCell id="wi6hc9yVbQGGReYQ5mCS-31" style="edgeStyle=orthogonalEdgeStyle;curved=1;rounded=0;orthogonalLoop=1;jettySize=auto;html=1;entryX=0;entryY=0.5;entryDx=0;entryDy=0;entryPerimeter=0;" parent="1" source="1zK_jm-uq4jT2fNUcjU_-1" target="wi6hc9yVbQGGReYQ5mCS-3" edge="1">
          <mxGeometry relative="1" as="geometry" />
        </mxCell>
        <mxCell id="wi6hc9yVbQGGReYQ5mCS-32" value="stunnel&lt;br&gt;BEAST + MLAT" style="edgeLabel;html=1;align=center;verticalAlign=middle;resizable=0;points=[];fillColor=none;" parent="wi6hc9yVbQGGReYQ5mCS-31" vertex="1" connectable="0">
          <mxGeometry x="0.0092" y="1" relative="1" as="geometry">
            <mxPoint x="-11" y="31" as="offset" />
          </mxGeometry>
        </mxCell>
        <mxCell id="wi6hc9yVbQGGReYQ5mCS-35" value="pw-enrichment" style="sketch=0;aspect=fixed;pointerEvents=1;shadow=0;dashed=0;html=1;strokeColor=none;labelPosition=center;verticalLabelPosition=bottom;verticalAlign=top;align=center;fillColor=#00188D;shape=mxgraph.mscae.enterprise.server_generic" parent="1" vertex="1">
          <mxGeometry x="573" y="215" width="24" height="50" as="geometry" />
        </mxCell>
        <mxCell id="wi6hc9yVbQGGReYQ5mCS-36" style="edgeStyle=orthogonalEdgeStyle;curved=1;rounded=0;orthogonalLoop=1;jettySize=auto;html=1;exitX=1;exitY=0.5;exitDx=0;exitDy=0;exitPerimeter=0;entryX=0.5;entryY=0;entryDx=0;entryDy=0;entryPerimeter=0;startArrow=classic;startFill=1;" parent="1" source="wi6hc9yVbQGGReYQ5mCS-27" target="wi6hc9yVbQGGReYQ5mCS-35" edge="1">
          <mxGeometry relative="1" as="geometry" />
        </mxCell>
        <mxCell id="wi6hc9yVbQGGReYQ5mCS-37" value="Msgs" style="edgeLabel;html=1;align=center;verticalAlign=middle;resizable=0;points=[];" parent="wi6hc9yVbQGGReYQ5mCS-36" vertex="1" connectable="0">
          <mxGeometry x="0.2571" y="-12" relative="1" as="geometry">
            <mxPoint x="10" y="27" as="offset" />
          </mxGeometry>
        </mxCell>
        <mxCell id="wi6hc9yVbQGGReYQ5mCS-38" value="pw_router" style="sketch=0;aspect=fixed;pointerEvents=1;shadow=0;dashed=0;html=1;strokeColor=none;labelPosition=center;verticalLabelPosition=bottom;verticalAlign=top;align=center;fillColor=#00188D;shape=mxgraph.mscae.enterprise.server_generic" parent="1" vertex="1">
          <mxGeometry x="663" y="215" width="24" height="50" as="geometry" />
        </mxCell>
        <mxCell id="wi6hc9yVbQGGReYQ5mCS-39" style="edgeStyle=orthogonalEdgeStyle;curved=1;rounded=0;orthogonalLoop=1;jettySize=auto;html=1;exitX=0.5;exitY=0;exitDx=0;exitDy=0;exitPerimeter=0;entryX=1;entryY=0.5;entryDx=0;entryDy=0;entryPerimeter=0;startArrow=classic;startFill=1;" parent="1" source="wi6hc9yVbQGGReYQ5mCS-38" target="wi6hc9yVbQGGReYQ5mCS-27" edge="1">
          <mxGeometry relative="1" as="geometry" />
        </mxCell>
        <mxCell id="wi6hc9yVbQGGReYQ5mCS-40" value="Msgs" style="edgeLabel;html=1;align=center;verticalAlign=middle;resizable=0;points=[];" parent="wi6hc9yVbQGGReYQ5mCS-39" vertex="1" connectable="0">
          <mxGeometry x="-0.7304" y="6" relative="1" as="geometry">
            <mxPoint x="4" y="6" as="offset" />
          </mxGeometry>
        </mxCell>
        <mxCell id="wi6hc9yVbQGGReYQ5mCS-41" value="pw_ws_broker" style="sketch=0;aspect=fixed;pointerEvents=1;shadow=0;dashed=0;html=1;strokeColor=none;labelPosition=center;verticalLabelPosition=bottom;verticalAlign=top;align=center;fillColor=#00188D;shape=mxgraph.mscae.enterprise.server_generic" parent="1" vertex="1">
          <mxGeometry x="750" y="215" width="24" height="50" as="geometry" />
        </mxCell>
        <mxCell id="wi6hc9yVbQGGReYQ5mCS-42" style="edgeStyle=orthogonalEdgeStyle;curved=1;rounded=0;orthogonalLoop=1;jettySize=auto;html=1;entryX=0.5;entryY=0;entryDx=0;entryDy=0;entryPerimeter=0;" parent="1" source="wi6hc9yVbQGGReYQ5mCS-27" target="wi6hc9yVbQGGReYQ5mCS-41" edge="1">
          <mxGeometry relative="1" as="geometry" />
        </mxCell>
        <mxCell id="wi6hc9yVbQGGReYQ5mCS-43" value="Msgs" style="edgeLabel;html=1;align=center;verticalAlign=middle;resizable=0;points=[];" parent="wi6hc9yVbQGGReYQ5mCS-42" vertex="1" connectable="0">
          <mxGeometry x="0.2188" y="-20" relative="1" as="geometry">
            <mxPoint x="44" y="25" as="offset" />
          </mxGeometry>
        </mxCell>
        <mxCell id="wi6hc9yVbQGGReYQ5mCS-46" value="" style="shape=flexArrow;endArrow=classic;html=1;rounded=0;curved=1;" parent="1" edge="1">
          <mxGeometry width="50" height="50" relative="1" as="geometry">
            <mxPoint x="606" y="239.5" as="sourcePoint" />
            <mxPoint x="656" y="240" as="targetPoint" />
          </mxGeometry>
        </mxCell>
        <mxCell id="wi6hc9yVbQGGReYQ5mCS-47" value="" style="shape=flexArrow;endArrow=classic;html=1;rounded=0;curved=1;" parent="1" edge="1">
          <mxGeometry width="50" height="50" relative="1" as="geometry">
            <mxPoint x="693" y="239.5" as="sourcePoint" />
            <mxPoint x="743" y="240" as="targetPoint" />
          </mxGeometry>
        </mxCell>
        <mxCell id="wi6hc9yVbQGGReYQ5mCS-48" value="Web Client" style="sketch=0;aspect=fixed;pointerEvents=1;shadow=0;dashed=0;html=1;strokeColor=none;labelPosition=center;verticalLabelPosition=bottom;verticalAlign=top;align=center;fillColor=#00188D;shape=mxgraph.azure.computer" parent="1" vertex="1">
          <mxGeometry x="898" y="217.5" width="50" height="45" as="geometry" />
        </mxCell>
        <mxCell id="wi6hc9yVbQGGReYQ5mCS-49" style="edgeStyle=orthogonalEdgeStyle;curved=1;rounded=0;orthogonalLoop=1;jettySize=auto;html=1;entryX=1;entryY=0.5;entryDx=0;entryDy=0;entryPerimeter=0;" parent="1" source="wi6hc9yVbQGGReYQ5mCS-48" target="wi6hc9yVbQGGReYQ5mCS-41" edge="1">
          <mxGeometry relative="1" as="geometry" />
        </mxCell>
        <mxCell id="wi6hc9yVbQGGReYQ5mCS-50" value="Websockets" style="edgeLabel;html=1;align=center;verticalAlign=middle;resizable=0;points=[];" parent="wi6hc9yVbQGGReYQ5mCS-49" vertex="1" connectable="0">
          <mxGeometry x="-0.0633" relative="1" as="geometry">
            <mxPoint as="offset" />
          </mxGeometry>
        </mxCell>
        <mxCell id="wi6hc9yVbQGGReYQ5mCS-54" value="pw-ui" style="sketch=0;aspect=fixed;pointerEvents=1;shadow=0;dashed=0;html=1;strokeColor=none;labelPosition=center;verticalLabelPosition=bottom;verticalAlign=top;align=center;fillColor=#00188D;shape=mxgraph.mscae.enterprise.application_server2" parent="1" vertex="1">
          <mxGeometry x="741" y="70" width="43" height="50" as="geometry" />
        </mxCell>
        <mxCell id="wi6hc9yVbQGGReYQ5mCS-55" style="edgeStyle=orthogonalEdgeStyle;curved=1;rounded=0;orthogonalLoop=1;jettySize=auto;html=1;exitX=0;exitY=0.5;exitDx=0;exitDy=0;exitPerimeter=0;entryX=1;entryY=0.62;entryDx=0;entryDy=0;entryPerimeter=0;" parent="1" source="wi6hc9yVbQGGReYQ5mCS-48" target="wi6hc9yVbQGGReYQ5mCS-54" edge="1">
          <mxGeometry relative="1" as="geometry">
            <Array as="points">
              <mxPoint x="863" y="240" />
              <mxPoint x="863" y="101" />
            </Array>
          </mxGeometry>
        </mxCell>
        <mxCell id="wi6hc9yVbQGGReYQ5mCS-56" value="HTTPS" style="edgeLabel;html=1;align=center;verticalAlign=middle;resizable=0;points=[];" parent="wi6hc9yVbQGGReYQ5mCS-55" vertex="1" connectable="0">
          <mxGeometry x="-0.17" y="1" relative="1" as="geometry">
            <mxPoint as="offset" />
          </mxGeometry>
        </mxCell>
        <mxCell id="T2VMPA1sEi_opKEb6tTR-1" style="edgeStyle=orthogonalEdgeStyle;rounded=0;orthogonalLoop=1;jettySize=auto;html=1;exitX=0.5;exitY=0;exitDx=0;exitDy=0;exitPerimeter=0;entryX=1;entryY=1;entryDx=0;entryDy=0;entryPerimeter=0;curved=1;" edge="1" parent="1" source="wi6hc9yVbQGGReYQ5mCS-14" target="wi6hc9yVbQGGReYQ5mCS-27">
          <mxGeometry relative="1" as="geometry">
            <Array as="points">
              <mxPoint x="587" y="300" />
              <mxPoint x="472" y="300" />
            </Array>
          </mxGeometry>
        </mxCell>
        <mxCell id="T2VMPA1sEi_opKEb6tTR-2" value="Msgs" style="edgeLabel;html=1;align=center;verticalAlign=middle;resizable=0;points=[];" vertex="1" connectable="0" parent="T2VMPA1sEi_opKEb6tTR-1">
          <mxGeometry x="0.2482" y="-17" relative="1" as="geometry">
            <mxPoint as="offset" />
          </mxGeometry>
        </mxCell>
      </root>
    </mxGraphModel>
  </diagram>
  <diagram name="Connection Process" id="UbZzXenRLvNdNvFu47B4">
    <mxGraphModel dx="954" dy="486" grid="1" gridSize="10" guides="1" tooltips="1" connect="1" arrows="1" fold="1" page="1" pageScale="1" pageWidth="827" pageHeight="1169" background="#ffffff" math="0" shadow="0">
      <root>
        <mxCell id="4tuDuTI0PzdhQrmIU4X3-0" />
        <mxCell id="4tuDuTI0PzdhQrmIU4X3-1" parent="4tuDuTI0PzdhQrmIU4X3-0" />
        <mxCell id="4tuDuTI0PzdhQrmIU4X3-2" value="" style="sketch=0;pointerEvents=1;shadow=0;dashed=0;html=1;strokeColor=none;fillColor=#434445;aspect=fixed;labelPosition=center;verticalLabelPosition=bottom;verticalAlign=top;align=center;outlineConnect=0;shape=mxgraph.vvd.wi_fi;rotation=90;" vertex="1" parent="4tuDuTI0PzdhQrmIU4X3-1">
          <mxGeometry x="90" y="100" width="50" height="50" as="geometry" />
        </mxCell>
        <mxCell id="4tuDuTI0PzdhQrmIU4X3-3" value="" style="verticalLabelPosition=bottom;shadow=0;dashed=0;align=center;html=1;verticalAlign=top;shape=mxgraph.electrical.radio.aerial_-_antenna_2;" vertex="1" parent="4tuDuTI0PzdhQrmIU4X3-1">
          <mxGeometry x="140" y="160" width="30" height="40" as="geometry" />
        </mxCell>
        <mxCell id="4tuDuTI0PzdhQrmIU4X3-4" value="Feeder Computer" style="sketch=0;aspect=fixed;pointerEvents=1;shadow=0;dashed=0;html=1;strokeColor=none;labelPosition=left;verticalLabelPosition=middle;verticalAlign=middle;align=right;fillColor=#00188D;shape=mxgraph.azure.computer" vertex="1" parent="4tuDuTI0PzdhQrmIU4X3-1">
          <mxGeometry x="131" y="244" width="50" height="45" as="geometry" />
        </mxCell>
        <mxCell id="4tuDuTI0PzdhQrmIU4X3-5" value="" style="fontColor=#0066CC;verticalAlign=top;verticalLabelPosition=bottom;labelPosition=center;align=center;html=1;outlineConnect=0;fillColor=#CCCCCC;strokeColor=#6881B3;gradientColor=none;gradientDirection=north;strokeWidth=2;shape=mxgraph.networks.usb_stick;rotation=-180;" vertex="1" parent="4tuDuTI0PzdhQrmIU4X3-1">
          <mxGeometry x="146" y="200" width="20" height="44.44" as="geometry" />
        </mxCell>
        <mxCell id="4tuDuTI0PzdhQrmIU4X3-6" value="" style="shape=image;html=1;verticalAlign=top;verticalLabelPosition=bottom;labelBackgroundColor=#ffffff;imageAspect=0;aspect=fixed;image=https://cdn4.iconfinder.com/data/icons/transportation-190/1000/airline_aircraft_airport_air_airliner_airplane_airway-128.png" vertex="1" parent="4tuDuTI0PzdhQrmIU4X3-1">
          <mxGeometry x="10" y="10" width="128" height="128" as="geometry" />
        </mxCell>
        <mxCell id="4tuDuTI0PzdhQrmIU4X3-7" value="Aircraft with ADS-B Transponder" style="text;strokeColor=none;align=left;fillColor=none;html=1;verticalAlign=middle;whiteSpace=wrap;rounded=0;" vertex="1" parent="4tuDuTI0PzdhQrmIU4X3-1">
          <mxGeometry x="125" y="59" width="210" height="30" as="geometry" />
        </mxCell>
        <mxCell id="4tuDuTI0PzdhQrmIU4X3-8" value="ADS-B Antenna" style="text;strokeColor=none;align=right;fillColor=none;html=1;verticalAlign=middle;whiteSpace=wrap;rounded=0;" vertex="1" parent="4tuDuTI0PzdhQrmIU4X3-1">
          <mxGeometry x="35" y="165" width="105" height="30" as="geometry" />
        </mxCell>
        <mxCell id="4tuDuTI0PzdhQrmIU4X3-9" value="SDR" style="text;strokeColor=none;align=right;fillColor=none;html=1;verticalAlign=middle;whiteSpace=wrap;rounded=0;" vertex="1" parent="4tuDuTI0PzdhQrmIU4X3-1">
          <mxGeometry x="100" y="200" width="40" height="30" as="geometry" />
        </mxCell>
        <mxCell id="4tuDuTI0PzdhQrmIU4X3-10" style="edgeStyle=orthogonalEdgeStyle;curved=1;rounded=0;orthogonalLoop=1;jettySize=auto;html=1;entryX=0;entryY=0.5;entryDx=0;entryDy=0;entryPerimeter=0;" edge="1" parent="4tuDuTI0PzdhQrmIU4X3-1" source="4tuDuTI0PzdhQrmIU4X3-14" target="4tuDuTI0PzdhQrmIU4X3-20">
          <mxGeometry relative="1" as="geometry">
            <mxPoint x="400" y="440" as="targetPoint" />
            <Array as="points">
              <mxPoint x="380" y="290" />
              <mxPoint x="380" y="430" />
              <mxPoint x="520" y="430" />
              <mxPoint x="520" y="354" />
            </Array>
          </mxGeometry>
        </mxCell>
        <mxCell id="4tuDuTI0PzdhQrmIU4X3-11" value="MLAT" style="edgeLabel;html=1;align=center;verticalAlign=middle;resizable=0;points=[];" vertex="1" connectable="0" parent="4tuDuTI0PzdhQrmIU4X3-10">
          <mxGeometry x="0.1511" y="-1" relative="1" as="geometry">
            <mxPoint x="-81" y="-61" as="offset" />
          </mxGeometry>
        </mxCell>
        <mxCell id="4tuDuTI0PzdhQrmIU4X3-12" style="edgeStyle=orthogonalEdgeStyle;curved=1;rounded=0;orthogonalLoop=1;jettySize=auto;html=1;startArrow=classic;startFill=1;entryX=0.5;entryY=1;entryDx=0;entryDy=0;entryPerimeter=0;" edge="1" parent="4tuDuTI0PzdhQrmIU4X3-1" source="4tuDuTI0PzdhQrmIU4X3-14" target="4tuDuTI0PzdhQrmIU4X3-15">
          <mxGeometry relative="1" as="geometry">
            <mxPoint x="339" y="200" as="targetPoint" />
          </mxGeometry>
        </mxCell>
        <mxCell id="4tuDuTI0PzdhQrmIU4X3-13" value="API Calls" style="edgeLabel;html=1;align=center;verticalAlign=middle;resizable=0;points=[];" vertex="1" connectable="0" parent="4tuDuTI0PzdhQrmIU4X3-12">
          <mxGeometry x="-0.0462" y="-1" relative="1" as="geometry">
            <mxPoint as="offset" />
          </mxGeometry>
        </mxCell>
        <mxCell id="4tuDuTI0PzdhQrmIU4X3-14" value="bordercontrol" style="sketch=0;aspect=fixed;pointerEvents=1;shadow=0;dashed=0;html=1;strokeColor=none;labelPosition=center;verticalLabelPosition=bottom;verticalAlign=top;align=center;fillColor=#00188D;shape=mxgraph.mscae.enterprise.web_server" vertex="1" parent="4tuDuTI0PzdhQrmIU4X3-1">
          <mxGeometry x="320" y="265" width="38" height="50" as="geometry" />
        </mxCell>
        <mxCell id="4tuDuTI0PzdhQrmIU4X3-15" value="ATC" style="sketch=0;aspect=fixed;pointerEvents=1;shadow=0;dashed=0;html=1;strokeColor=none;labelPosition=left;verticalLabelPosition=middle;verticalAlign=middle;align=right;fillColor=#00188D;shape=mxgraph.mscae.enterprise.database_server" vertex="1" parent="4tuDuTI0PzdhQrmIU4X3-1">
          <mxGeometry x="320" y="120" width="38" height="50" as="geometry" />
        </mxCell>
        <mxCell id="4tuDuTI0PzdhQrmIU4X3-16" value="feed-in&lt;br&gt;containers" style="sketch=0;aspect=fixed;pointerEvents=1;shadow=0;dashed=0;html=1;strokeColor=none;labelPosition=center;verticalLabelPosition=bottom;verticalAlign=top;align=center;fillColor=#00188D;shape=mxgraph.mscae.enterprise.cluster_server" vertex="1" parent="4tuDuTI0PzdhQrmIU4X3-1">
          <mxGeometry x="440" y="329" width="40" height="50" as="geometry" />
        </mxCell>
        <mxCell id="4tuDuTI0PzdhQrmIU4X3-17" value="Interwebs" style="ellipse;shape=cloud;whiteSpace=wrap;html=1;" vertex="1" parent="4tuDuTI0PzdhQrmIU4X3-1">
          <mxGeometry x="190" y="224" width="99" height="41" as="geometry" />
        </mxCell>
        <mxCell id="4tuDuTI0PzdhQrmIU4X3-18" style="edgeStyle=orthogonalEdgeStyle;curved=1;rounded=0;orthogonalLoop=1;jettySize=auto;html=1;entryX=0;entryY=0.5;entryDx=0;entryDy=0;entryPerimeter=0;" edge="1" parent="4tuDuTI0PzdhQrmIU4X3-1" source="4tuDuTI0PzdhQrmIU4X3-14" target="4tuDuTI0PzdhQrmIU4X3-16">
          <mxGeometry relative="1" as="geometry" />
        </mxCell>
        <mxCell id="4tuDuTI0PzdhQrmIU4X3-19" value="BEAST" style="edgeLabel;html=1;align=center;verticalAlign=middle;resizable=0;points=[];" vertex="1" connectable="0" parent="4tuDuTI0PzdhQrmIU4X3-18">
          <mxGeometry x="0.0236" y="3" relative="1" as="geometry">
            <mxPoint as="offset" />
          </mxGeometry>
        </mxCell>
        <mxCell id="4tuDuTI0PzdhQrmIU4X3-20" value="regional&lt;br&gt;multiplexers" style="sketch=0;aspect=fixed;pointerEvents=1;shadow=0;dashed=0;html=1;strokeColor=none;labelPosition=center;verticalLabelPosition=bottom;verticalAlign=top;align=center;fillColor=#00188D;shape=mxgraph.mscae.enterprise.cluster_server" vertex="1" parent="4tuDuTI0PzdhQrmIU4X3-1">
          <mxGeometry x="567" y="329" width="40" height="50" as="geometry" />
        </mxCell>
        <mxCell id="4tuDuTI0PzdhQrmIU4X3-21" style="edgeStyle=orthogonalEdgeStyle;curved=1;rounded=0;orthogonalLoop=1;jettySize=auto;html=1;entryX=0;entryY=0.5;entryDx=0;entryDy=0;entryPerimeter=0;" edge="1" parent="4tuDuTI0PzdhQrmIU4X3-1" source="4tuDuTI0PzdhQrmIU4X3-16" target="4tuDuTI0PzdhQrmIU4X3-20">
          <mxGeometry relative="1" as="geometry" />
        </mxCell>
        <mxCell id="4tuDuTI0PzdhQrmIU4X3-22" value="BEAST" style="edgeLabel;html=1;align=center;verticalAlign=middle;resizable=0;points=[];" vertex="1" connectable="0" parent="4tuDuTI0PzdhQrmIU4X3-21">
          <mxGeometry x="0.025" y="-2" relative="1" as="geometry">
            <mxPoint x="-15" y="-2" as="offset" />
          </mxGeometry>
        </mxCell>
        <mxCell id="4tuDuTI0PzdhQrmIU4X3-23" value="NATS" style="sketch=0;aspect=fixed;pointerEvents=1;shadow=0;dashed=0;html=1;strokeColor=none;labelPosition=left;verticalLabelPosition=middle;verticalAlign=middle;align=right;fillColor=#00188D;shape=mxgraph.mscae.enterprise.server_generic" vertex="1" parent="4tuDuTI0PzdhQrmIU4X3-1">
          <mxGeometry x="448" y="120" width="24" height="50" as="geometry" />
        </mxCell>
        <mxCell id="4tuDuTI0PzdhQrmIU4X3-24" value="Msgs" style="edgeStyle=orthogonalEdgeStyle;curved=1;rounded=0;orthogonalLoop=1;jettySize=auto;html=1;entryX=0;entryY=1;entryDx=0;entryDy=0;entryPerimeter=0;" edge="1" parent="4tuDuTI0PzdhQrmIU4X3-1" source="4tuDuTI0PzdhQrmIU4X3-16" target="4tuDuTI0PzdhQrmIU4X3-23">
          <mxGeometry relative="1" as="geometry">
            <mxPoint x="460" y="190" as="targetPoint" />
            <Array as="points">
              <mxPoint x="460" y="250" />
              <mxPoint x="448" y="250" />
            </Array>
          </mxGeometry>
        </mxCell>
        <mxCell id="4tuDuTI0PzdhQrmIU4X3-25" style="edgeStyle=orthogonalEdgeStyle;curved=1;rounded=0;orthogonalLoop=1;jettySize=auto;html=1;entryX=0;entryY=0.5;entryDx=0;entryDy=0;entryPerimeter=0;" edge="1" parent="4tuDuTI0PzdhQrmIU4X3-1" source="4tuDuTI0PzdhQrmIU4X3-4" target="4tuDuTI0PzdhQrmIU4X3-14">
          <mxGeometry relative="1" as="geometry" />
        </mxCell>
        <mxCell id="4tuDuTI0PzdhQrmIU4X3-26" value="stunnel&lt;br&gt;BEAST + MLAT" style="edgeLabel;html=1;align=center;verticalAlign=middle;resizable=0;points=[];fillColor=none;" vertex="1" connectable="0" parent="4tuDuTI0PzdhQrmIU4X3-25">
          <mxGeometry x="0.0092" y="1" relative="1" as="geometry">
            <mxPoint x="-11" y="31" as="offset" />
          </mxGeometry>
        </mxCell>
        <mxCell id="4tuDuTI0PzdhQrmIU4X3-27" value="pw-enrichment" style="sketch=0;aspect=fixed;pointerEvents=1;shadow=0;dashed=0;html=1;strokeColor=none;labelPosition=center;verticalLabelPosition=bottom;verticalAlign=top;align=center;fillColor=#00188D;shape=mxgraph.mscae.enterprise.server_generic" vertex="1" parent="4tuDuTI0PzdhQrmIU4X3-1">
          <mxGeometry x="573" y="215" width="24" height="50" as="geometry" />
        </mxCell>
        <mxCell id="4tuDuTI0PzdhQrmIU4X3-28" style="edgeStyle=orthogonalEdgeStyle;curved=1;rounded=0;orthogonalLoop=1;jettySize=auto;html=1;exitX=1;exitY=0.5;exitDx=0;exitDy=0;exitPerimeter=0;entryX=0.5;entryY=0;entryDx=0;entryDy=0;entryPerimeter=0;startArrow=classic;startFill=1;" edge="1" parent="4tuDuTI0PzdhQrmIU4X3-1" source="4tuDuTI0PzdhQrmIU4X3-23" target="4tuDuTI0PzdhQrmIU4X3-27">
          <mxGeometry relative="1" as="geometry" />
        </mxCell>
        <mxCell id="4tuDuTI0PzdhQrmIU4X3-29" value="Msgs" style="edgeLabel;html=1;align=center;verticalAlign=middle;resizable=0;points=[];" vertex="1" connectable="0" parent="4tuDuTI0PzdhQrmIU4X3-28">
          <mxGeometry x="0.2571" y="-12" relative="1" as="geometry">
            <mxPoint x="10" y="27" as="offset" />
          </mxGeometry>
        </mxCell>
        <mxCell id="4tuDuTI0PzdhQrmIU4X3-30" value="pw_router" style="sketch=0;aspect=fixed;pointerEvents=1;shadow=0;dashed=0;html=1;strokeColor=none;labelPosition=center;verticalLabelPosition=bottom;verticalAlign=top;align=center;fillColor=#00188D;shape=mxgraph.mscae.enterprise.server_generic" vertex="1" parent="4tuDuTI0PzdhQrmIU4X3-1">
          <mxGeometry x="663" y="215" width="24" height="50" as="geometry" />
        </mxCell>
        <mxCell id="4tuDuTI0PzdhQrmIU4X3-31" style="edgeStyle=orthogonalEdgeStyle;curved=1;rounded=0;orthogonalLoop=1;jettySize=auto;html=1;exitX=0.5;exitY=0;exitDx=0;exitDy=0;exitPerimeter=0;entryX=1;entryY=0.5;entryDx=0;entryDy=0;entryPerimeter=0;startArrow=classic;startFill=1;" edge="1" parent="4tuDuTI0PzdhQrmIU4X3-1" source="4tuDuTI0PzdhQrmIU4X3-30" target="4tuDuTI0PzdhQrmIU4X3-23">
          <mxGeometry relative="1" as="geometry" />
        </mxCell>
        <mxCell id="4tuDuTI0PzdhQrmIU4X3-32" value="Msgs" style="edgeLabel;html=1;align=center;verticalAlign=middle;resizable=0;points=[];" vertex="1" connectable="0" parent="4tuDuTI0PzdhQrmIU4X3-31">
          <mxGeometry x="-0.7304" y="6" relative="1" as="geometry">
            <mxPoint x="4" y="6" as="offset" />
          </mxGeometry>
        </mxCell>
        <mxCell id="4tuDuTI0PzdhQrmIU4X3-33" value="pw_ws_broker" style="sketch=0;aspect=fixed;pointerEvents=1;shadow=0;dashed=0;html=1;strokeColor=none;labelPosition=center;verticalLabelPosition=bottom;verticalAlign=top;align=center;fillColor=#00188D;shape=mxgraph.mscae.enterprise.server_generic" vertex="1" parent="4tuDuTI0PzdhQrmIU4X3-1">
          <mxGeometry x="750" y="215" width="24" height="50" as="geometry" />
        </mxCell>
        <mxCell id="4tuDuTI0PzdhQrmIU4X3-34" style="edgeStyle=orthogonalEdgeStyle;curved=1;rounded=0;orthogonalLoop=1;jettySize=auto;html=1;entryX=0.5;entryY=0;entryDx=0;entryDy=0;entryPerimeter=0;" edge="1" parent="4tuDuTI0PzdhQrmIU4X3-1" source="4tuDuTI0PzdhQrmIU4X3-23" target="4tuDuTI0PzdhQrmIU4X3-33">
          <mxGeometry relative="1" as="geometry" />
        </mxCell>
        <mxCell id="4tuDuTI0PzdhQrmIU4X3-35" value="Msgs" style="edgeLabel;html=1;align=center;verticalAlign=middle;resizable=0;points=[];" vertex="1" connectable="0" parent="4tuDuTI0PzdhQrmIU4X3-34">
          <mxGeometry x="0.2188" y="-20" relative="1" as="geometry">
            <mxPoint x="44" y="25" as="offset" />
          </mxGeometry>
        </mxCell>
        <mxCell id="4tuDuTI0PzdhQrmIU4X3-36" value="" style="shape=flexArrow;endArrow=classic;html=1;rounded=0;curved=1;" edge="1" parent="4tuDuTI0PzdhQrmIU4X3-1">
          <mxGeometry width="50" height="50" relative="1" as="geometry">
            <mxPoint x="606" y="239.5" as="sourcePoint" />
            <mxPoint x="656" y="240" as="targetPoint" />
          </mxGeometry>
        </mxCell>
        <mxCell id="4tuDuTI0PzdhQrmIU4X3-37" value="" style="shape=flexArrow;endArrow=classic;html=1;rounded=0;curved=1;" edge="1" parent="4tuDuTI0PzdhQrmIU4X3-1">
          <mxGeometry width="50" height="50" relative="1" as="geometry">
            <mxPoint x="693" y="239.5" as="sourcePoint" />
            <mxPoint x="743" y="240" as="targetPoint" />
          </mxGeometry>
        </mxCell>
        <mxCell id="4tuDuTI0PzdhQrmIU4X3-38" value="Web Client" style="sketch=0;aspect=fixed;pointerEvents=1;shadow=0;dashed=0;html=1;strokeColor=none;labelPosition=center;verticalLabelPosition=bottom;verticalAlign=top;align=center;fillColor=#00188D;shape=mxgraph.azure.computer" vertex="1" parent="4tuDuTI0PzdhQrmIU4X3-1">
          <mxGeometry x="927" y="217.5" width="50" height="45" as="geometry" />
        </mxCell>
        <mxCell id="4tuDuTI0PzdhQrmIU4X3-39" style="edgeStyle=orthogonalEdgeStyle;curved=1;rounded=0;orthogonalLoop=1;jettySize=auto;html=1;entryX=1;entryY=0.5;entryDx=0;entryDy=0;entryPerimeter=0;" edge="1" parent="4tuDuTI0PzdhQrmIU4X3-1" source="4tuDuTI0PzdhQrmIU4X3-38" target="4tuDuTI0PzdhQrmIU4X3-33">
          <mxGeometry relative="1" as="geometry" />
        </mxCell>
        <mxCell id="4tuDuTI0PzdhQrmIU4X3-40" value="Websockets" style="edgeLabel;html=1;align=center;verticalAlign=middle;resizable=0;points=[];" vertex="1" connectable="0" parent="4tuDuTI0PzdhQrmIU4X3-39">
          <mxGeometry x="-0.0633" relative="1" as="geometry">
            <mxPoint x="-28" as="offset" />
          </mxGeometry>
        </mxCell>
        <mxCell id="4tuDuTI0PzdhQrmIU4X3-41" value="pw-ui" style="sketch=0;aspect=fixed;pointerEvents=1;shadow=0;dashed=0;html=1;strokeColor=none;labelPosition=center;verticalLabelPosition=bottom;verticalAlign=top;align=center;fillColor=#00188D;shape=mxgraph.mscae.enterprise.application_server2" vertex="1" parent="4tuDuTI0PzdhQrmIU4X3-1">
          <mxGeometry x="741" y="70" width="43" height="50" as="geometry" />
        </mxCell>
        <mxCell id="4tuDuTI0PzdhQrmIU4X3-42" style="edgeStyle=orthogonalEdgeStyle;curved=1;rounded=0;orthogonalLoop=1;jettySize=auto;html=1;exitX=0;exitY=0.5;exitDx=0;exitDy=0;exitPerimeter=0;entryX=1;entryY=0.62;entryDx=0;entryDy=0;entryPerimeter=0;" edge="1" parent="4tuDuTI0PzdhQrmIU4X3-1" source="4tuDuTI0PzdhQrmIU4X3-38" target="4tuDuTI0PzdhQrmIU4X3-41">
          <mxGeometry relative="1" as="geometry">
            <Array as="points">
              <mxPoint x="863" y="240" />
              <mxPoint x="863" y="101" />
            </Array>
          </mxGeometry>
        </mxCell>
        <mxCell id="4tuDuTI0PzdhQrmIU4X3-43" value="HTTPS" style="edgeLabel;html=1;align=center;verticalAlign=middle;resizable=0;points=[];" vertex="1" connectable="0" parent="4tuDuTI0PzdhQrmIU4X3-42">
          <mxGeometry x="-0.17" y="1" relative="1" as="geometry">
            <mxPoint x="-2" y="-22" as="offset" />
          </mxGeometry>
        </mxCell>
        <mxCell id="4tuDuTI0PzdhQrmIU4X3-44" style="edgeStyle=orthogonalEdgeStyle;rounded=0;orthogonalLoop=1;jettySize=auto;html=1;exitX=0.5;exitY=0;exitDx=0;exitDy=0;exitPerimeter=0;entryX=1;entryY=1;entryDx=0;entryDy=0;entryPerimeter=0;curved=1;" edge="1" parent="4tuDuTI0PzdhQrmIU4X3-1" source="4tuDuTI0PzdhQrmIU4X3-20" target="4tuDuTI0PzdhQrmIU4X3-23">
          <mxGeometry relative="1" as="geometry">
            <Array as="points">
              <mxPoint x="587" y="290" />
              <mxPoint x="472" y="290" />
            </Array>
          </mxGeometry>
        </mxCell>
        <mxCell id="4tuDuTI0PzdhQrmIU4X3-45" value="Msgs" style="edgeLabel;html=1;align=center;verticalAlign=middle;resizable=0;points=[];" vertex="1" connectable="0" parent="4tuDuTI0PzdhQrmIU4X3-44">
          <mxGeometry x="0.2482" y="-17" relative="1" as="geometry">
            <mxPoint x="-9" y="-43" as="offset" />
          </mxGeometry>
        </mxCell>
        <mxCell id="DbxVEAV3iA1q-rIoEpKP-0" value="1" style="ellipse;whiteSpace=wrap;html=1;aspect=fixed;fillColor=#666600;fontColor=#FFCCCC;fontSize=24;" vertex="1" parent="4tuDuTI0PzdhQrmIU4X3-1">
          <mxGeometry x="221" y="253" width="45" height="45" as="geometry" />
        </mxCell>
        <mxCell id="DbxVEAV3iA1q-rIoEpKP-1" value="2" style="ellipse;whiteSpace=wrap;html=1;aspect=fixed;fillColor=#666600;fontColor=#FFCCCC;fontSize=24;" vertex="1" parent="4tuDuTI0PzdhQrmIU4X3-1">
          <mxGeometry x="317" y="199" width="45" height="45" as="geometry" />
        </mxCell>
        <mxCell id="DbxVEAV3iA1q-rIoEpKP-2" value="3" style="ellipse;whiteSpace=wrap;html=1;aspect=fixed;fillColor=#666600;fontColor=#FFCCCC;fontSize=24;" vertex="1" parent="4tuDuTI0PzdhQrmIU4X3-1">
          <mxGeometry x="389" y="304" width="45" height="45" as="geometry" />
        </mxCell>
        <mxCell id="DbxVEAV3iA1q-rIoEpKP-3" value="4" style="ellipse;whiteSpace=wrap;html=1;aspect=fixed;fillColor=#666600;fontColor=#FFCCCC;fontSize=24;" vertex="1" parent="4tuDuTI0PzdhQrmIU4X3-1">
          <mxGeometry x="366" y="378" width="45" height="45" as="geometry" />
        </mxCell>
        <mxCell id="DbxVEAV3iA1q-rIoEpKP-4" value="5" style="ellipse;whiteSpace=wrap;html=1;aspect=fixed;fillColor=#666600;fontColor=#FFCCCC;fontSize=24;" vertex="1" parent="4tuDuTI0PzdhQrmIU4X3-1">
          <mxGeometry x="436" y="265" width="45" height="45" as="geometry" />
        </mxCell>
        <mxCell id="DbxVEAV3iA1q-rIoEpKP-5" value="6" style="ellipse;whiteSpace=wrap;html=1;aspect=fixed;fillColor=#666600;fontColor=#FFCCCC;fontSize=24;" vertex="1" parent="4tuDuTI0PzdhQrmIU4X3-1">
          <mxGeometry x="490" y="262.5" width="45" height="45" as="geometry" />
        </mxCell>
        <mxCell id="mUlhEoZJyg_Jj1NIWDZF-0" value="8" style="ellipse;whiteSpace=wrap;html=1;aspect=fixed;fillColor=#666600;fontColor=#FFCCCC;fontSize=24;" vertex="1" parent="4tuDuTI0PzdhQrmIU4X3-1">
          <mxGeometry x="870" y="218" width="45" height="45" as="geometry" />
        </mxCell>
        <mxCell id="mUlhEoZJyg_Jj1NIWDZF-3" value="7" style="ellipse;whiteSpace=wrap;html=1;aspect=fixed;fillColor=#666600;fontColor=#FFCCCC;fontSize=24;" vertex="1" parent="4tuDuTI0PzdhQrmIU4X3-1">
          <mxGeometry x="510" y="124" width="45" height="45" as="geometry" />
        </mxCell>
      </root>
    </mxGraphModel>
  </diagram>
</mxfile>
